# xmcd CD database file
#
# Track frame offsets:
#	150
#	24685
#	38450
#	48972
#	61904
#	75172
#	89193
#	103768
#	119330
#	130817
#	144821
#	160250
#	173941
#	189641
#	207043
#	224492
#	239018
#	262502
#	277043
#	292664
#	303318
#
# Disc length: 4268 seconds
#
# Revision: 1
# Processed by: cddbd v1.5.1PL0 Copyright (c) Steve Scherf et al.
# Submitted via: CDex 1.51
#
DISCID=2210aa15
DTITLE=Augustus Pablo - The Great Pablo
DYEAR=2000
DGENRE=Dub
TTITLE0=East Of The River Nile
TTITLE1=River Nile Version
TTITLE2=African Queen
TTITLE3=Java
TTITLE4=Mava
TTITLE5=The Great Pablo
TTITLE6=Bass And Drum Version
TTITLE7=Hot and Cold
TTITLE8=Well Read
TTITLE9=The Big Rip Off
TTITLE10=Shake Up
TTITLE11=Shake Down
TTITLE12=House Raid
TTITLE13=Curly Locks
TTITLE14=Road Block
TTITLE15=Hillside Airstrip
TTITLE16=My Desire
TTITLE17=Words Of My Mouth
TTITLE18=Gun Trade
TTITLE19=Eli's Move
TTITLE20=Mr. Big
EXTD=YEAR: 2000
EXTT0=
EXTT1=
EXTT2=
EXTT3=
EXTT4=
EXTT5=
EXTT6=
EXTT7=
EXTT8=
EXTT9=
EXTT10=
EXTT11=
EXTT12=
EXTT13=
EXTT14=
EXTT15=
EXTT16=
EXTT17=
EXTT18=
EXTT19=
EXTT20=
PLAYORDER=
